# xmcd CD database file
#
# Track frame offsets:
#	150
#	22309
#	39715
#	65622
#	83157
#	96991
#	116711
#	143935
#	159622
#	171922
#	182114
#	199510
#	219857
#	236290
#	264719
#
# Disc length: 3822 seconds
#
# Revision: 0
# Processed by: cddbd v1.5.1PL0 Copyright (c) Steve Scherf et al.
# Submitted via: CDex 1.51
#
DISCID=da0eec0f
DTITLE=Various Artist - Lucerne Blues Festival 2003
DYEAR=2003
DGENRE=Blues
TTITLE0=Vance Kelly - Members Only
TTITLE1=Sugar Ray and The Bluetones - Tell Me Whats Going On
TTITLE2=Mel Brown - Woman Wanted
TTITLE3=R.J. Mischo - Meet Me On The Coast
TTITLE4=Doug Macleod - High Spending Woman
TTITLE5=Kim Wilson -  High and Lonesome
TTITLE6=Bob Stroger - Loan Me Train Fare
TTITLE7=Chick Willis - Keep Singing Blues
TTITLE8=Frank Goldwasser - I'm-A-Love You
TTITLE9=Wild Child Butler - Slippin' In
TTITLE10=Johnnie Marshall - On My Way To Memphis
TTITLE11=Sharrie Williams - A Good Man Is Hard To Find
TTITLE12=Kim Wilson - Lookin' For Trouble
TTITLE13=Jody Williams - She Found A Fool And Bumped His Head
TTITLE14=Otis Clay - I Keep Trying Not To Break Down (Over You)
EXTD=YEAR: 2003
EXTT0=
EXTT1=
EXTT2=
EXTT3=
EXTT4=
EXTT5=
EXTT6=
EXTT7=
EXTT8=
EXTT9=
EXTT10=
EXTT11=
EXTT12=
EXTT13=
EXTT14=
PLAYORDER=
